<svg id="Capa_1" data-name="Capa 1" xmlns="http://www.w3.org/2000/svg" viewBox="0 0 111.5 210"><defs><style>.cls-1{fill:#3a9cf0;}.cls-2{fill:#f7de11;}</style></defs><title>logo</title><path class="cls-1" d="M77.78,242.53c9.36-16.29,17.35-29.52,23.38-39.3,7.18-11.63,14.38-22.92,17.12-27.2,5.67-8.88,5-8.4,9-14a225.33,225.33,0,0,0,20.5-34.5c5.86-12.21,8.78-18.31,10-26,0.33-2.08,5.1-35.8-19.5-56C125,34.61,109.87,33.2,103.28,33V52.53a70.45,70.45,0,0,1,14,1c9.42,1.63,19.7,3.4,23.5,10s-0.39,15.2-7,28.5c-5.07,10.2-10,17.33-19,30-14,19.67-18.8,25.12-28,38.5-8.06,11.73-14,21.53-17.5,27.5l-22,40.5Z" transform="translate(-47.28 -32.53)"/><path class="cls-2" d="M128.78,242.53l-25-39.5,22.5-35,32.5,59.5Z" transform="translate(-47.28 -32.53)"/><path class="cls-2" d="M79.28,165a232.76,232.76,0,0,1-26-48.5c-4.68-11.91-5.29-16.3-5.5-18C45,76.11,56.87,49.27,79.28,38a53.27,53.27,0,0,1,21.5-5.5V52.58a79,79,0,0,0-20,2.94c-7.3,2.07-14.33,4.16-16,9.5a9.51,9.51,0,0,0,0,5c2.74,13.56,7,21,7,21,5.1,8.9,15.48,24.72,30.5,44Z" transform="translate(-47.28 -32.53)"/></svg>